HIERARCHY
ROOT Hips
{
  OFFSET 5.80788e-005 67.184 3.4734
  CHANNELS 6 Xposition Yposition Zposition Zrotation Xrotation Yrotation
  JOINT Chest
  {
    OFFSET 0 8.7983 -4.7612
    CHANNELS 3 Zrotation Xrotation Yrotation
    JOINT Chest2
    {
      OFFSET 0 8.0291 0.4195
      CHANNELS 3 Zrotation Xrotation Yrotation
      JOINT Chest3
      {
        OFFSET 0 9.9351 -2.2114
        CHANNELS 3 Zrotation Xrotation Yrotation
        JOINT Neck
        {
          OFFSET 0 22.3885 -0.4656
          CHANNELS 3 Zrotation Xrotation Yrotation
          JOINT Head
          {
            OFFSET -0.0001 12.643 3.4389
            CHANNELS 3 Zrotation Xrotation Yrotation
            End Site
            {
              OFFSET 0.0001 17.6655 0.5274
            }
          }
        }
        JOINT LeftCollar
        {
          OFFSET 2.2603 21.606 7.4023
          CHANNELS 3 Zrotation Xrotation Yrotation
          JOINT LeftShoulder
          {
            OFFSET 13.5163 -1.1332 -5.0146
            CHANNELS 3 Zrotation Xrotation Yrotation
            JOINT LeftElbow
            {
              OFFSET -0.0995 -28.05 -0.2431
              CHANNELS 3 Zrotation Xrotation Yrotation
              JOINT LeftWrist
              {
                OFFSET 0.0679 -23.3996 -0.1402
                CHANNELS 3 Zrotation Xrotation Yrotation
                JOINT LeftFinger1
                {
                  OFFSET 0.7932 -9.069 2.5189
                  CHANNELS 3 Zrotation Xrotation Yrotation
                  JOINT LeftFinger11
                  {
                    OFFSET -0.8272 -3.3923 0.5977
                    CHANNELS 3 Zrotation Xrotation Yrotation
                    JOINT LeftFinger12
                    {
                      OFFSET -0.5649 -2.3158 0.4082
                      CHANNELS 3 Zrotation Xrotation Yrotation
                      End Site
                      {
                        OFFSET -0.4919 -1.6479 0.2673
                      }
                    }
                  }
                }
                JOINT LeftFinger2
                {
                  OFFSET 0.9159 -9.2044 0.2193
                  CHANNELS 3 Zrotation Xrotation Yrotation
                  JOINT LeftFinger21
                  {
                    OFFSET 0.0117 -4.1944 -0.0248
                    CHANNELS 3 Zrotation Xrotation Yrotation
                    JOINT LeftFinger22
                    {
                      OFFSET 0.0071 -2.3249 -0.0142
                      CHANNELS 3 Zrotation Xrotation Yrotation
                      End Site
                      {
                        OFFSET -0.1475 -2.0882 0.0028
                      }
                    }
                  }
                }
                JOINT LeftFinger3
                {
                  OFFSET 0.6113 -8.7231 -2.0637
                  CHANNELS 3 Zrotation Xrotation Yrotation
                  JOINT LeftFinger31
                  {
                    OFFSET -0.1927 -3.8059 -0.2383
                    CHANNELS 3 Zrotation Xrotation Yrotation
                    JOINT LeftFinger32
                    {
                      OFFSET -0.1091 -2.1688 -0.1362
                      CHANNELS 3 Zrotation Xrotation Yrotation
                      End Site
                      {
                        OFFSET -0.2358 -1.9176 -0.0906
                      }
                    }
                  }
                }
                JOINT LeftFinger4
                {
                  OFFSET -0.6151 -8.0947 -3.5641
                  CHANNELS 3 Zrotation Xrotation Yrotation
                  JOINT LeftFinger41
                  {
                    OFFSET -0.4882 -2.341 -0.6462
                    CHANNELS 3 Zrotation Xrotation Yrotation
                    JOINT LeftFinger42
                    {
                      OFFSET -0.3575 -1.7167 -0.4742
                      CHANNELS 3 Zrotation Xrotation Yrotation
                      End Site
                      {
                        OFFSET -0.4187 -1.5237 -0.3496
                      }
                    }
                  }
                }
                JOINT LeftFinger0
                {
                  OFFSET -1.42 -1.8761 1.4223
                  CHANNELS 3 Zrotation Xrotation Yrotation
                  JOINT LeftFinger01
                  {
                    OFFSET -1.1471 -3.4929 2.6334
                    CHANNELS 3 Zrotation Xrotation Yrotation
                    JOINT LeftFinger02
                    {
                      OFFSET -0.823 -2.3 1.6571
                      CHANNELS 3 Zrotation Xrotation Yrotation
                      End Site
                      {
                        OFFSET -0.5822 -1.6914 1.1582
                      }
                    }
                  }
                }
              }
            }
          }
        }
        JOINT RightCollar
        {
          OFFSET -2.2603 21.606 7.4023
          CHANNELS 3 Zrotation Xrotation Yrotation
          JOINT RightShoulder
          {
            OFFSET -13.5187 -1.1334 -5.0155
            CHANNELS 3 Zrotation Xrotation Yrotation
            JOINT RightElbow
            {
              OFFSET 0.0994 -28.0499 -0.2431
              CHANNELS 3 Zrotation Xrotation Yrotation
              JOINT RightWrist
              {
                OFFSET -0.0679 -23.3996 -0.1402
                CHANNELS 3 Zrotation Xrotation Yrotation
                JOINT RightFinger1
                {
                  OFFSET -0.7932 -9.0691 2.5189
                  CHANNELS 3 Zrotation Xrotation Yrotation
                  JOINT RightFinger11
                  {
                    OFFSET 0.8272 -3.3923 0.5977
                    CHANNELS 3 Zrotation Xrotation Yrotation
                    JOINT RightFinger12
                    {
                      OFFSET 0.565 -2.3158 0.4082
                      CHANNELS 3 Zrotation Xrotation Yrotation
                      End Site
                      {
                        OFFSET 0.4919 -1.6479 0.2673
                      }
                    }
                  }
                }
                JOINT RightFinger2
                {
                  OFFSET -0.916 -9.2044 0.2193
                  CHANNELS 3 Zrotation Xrotation Yrotation
                  JOINT RightFinger21
                  {
                    OFFSET -0.0117 -4.1944 -0.0248
                    CHANNELS 3 Zrotation Xrotation Yrotation
                    JOINT RightFinger22
                    {
                      OFFSET -0.0071 -2.3249 -0.0142
                      CHANNELS 3 Zrotation Xrotation Yrotation
                      End Site
                      {
                        OFFSET 0.1475 -2.0882 0.0028
                      }
                    }
                  }
                }
                JOINT RightFinger3
                {
                  OFFSET -0.6113 -8.7231 -2.0637
                  CHANNELS 3 Zrotation Xrotation Yrotation
                  JOINT RightFinger31
                  {
                    OFFSET 0.1927 -3.8059 -0.2383
                    CHANNELS 3 Zrotation Xrotation Yrotation
                    JOINT RightFinger32
                    {
                      OFFSET 0.1091 -2.1688 -0.1362
                      CHANNELS 3 Zrotation Xrotation Yrotation
                      End Site
                      {
                        OFFSET 0.2358 -1.9176 -0.0906
                      }
                    }
                  }
                }
                JOINT RightFinger4
                {
                  OFFSET 0.6151 -8.0947 -3.564
                  CHANNELS 3 Zrotation Xrotation Yrotation
                  JOINT RightFinger41
                  {
                    OFFSET 0.4882 -2.341 -0.6462
                    CHANNELS 3 Zrotation Xrotation Yrotation
                    JOINT RightFinger42
                    {
                      OFFSET 0.3574 -1.7166 -0.4742
                      CHANNELS 3 Zrotation Xrotation Yrotation
                      End Site
                      {
                        OFFSET 0.4187 -1.5237 -0.3496
                      }
                    }
                  }
                }
                JOINT RightFinger0
                {
                  OFFSET 1.4199 -1.8761 1.4221
                  CHANNELS 3 Zrotation Xrotation Yrotation
                  JOINT RightFinger01
                  {
                    OFFSET 1.1472 -3.4929 2.6336
                    CHANNELS 3 Zrotation Xrotation Yrotation
                    JOINT RightFinger02
                    {
                      OFFSET 0.8229 -2.3 1.6571
                      CHANNELS 3 Zrotation Xrotation Yrotation
                      End Site
                      {
                        OFFSET 0.5822 -1.6914 1.1582
                      }
                    }
                  }
                }
              }
            }
          }
        }
      }
    }
  }
  JOINT RightHip
  {
    OFFSET -9.412 3.9771 -0.7758
    CHANNELS 3 Zrotation Xrotation Yrotation
    JOINT RightKnee
    {
      OFFSET -0.7531 -40.938 0
      CHANNELS 3 Zrotation Xrotation Yrotation
      JOINT RightAnkle
      {
        OFFSET 0 -40.1986 0
        CHANNELS 3 Zrotation Xrotation Yrotation
        JOINT RightToe
        {
          OFFSET 0 -4.4182 9.239
          CHANNELS 3 Zrotation Xrotation Yrotation
          End Site
          {
            OFFSET 0 0 6.1981
          }
        }
      }
    }
  }
  JOINT LeftHip
  {
    OFFSET 9.4119 3.9773 -0.7758
    CHANNELS 3 Zrotation Xrotation Yrotation
    JOINT LeftKnee
    {
      OFFSET 0.7532 -40.9383 0
      CHANNELS 3 Zrotation Xrotation Yrotation
      JOINT LeftAnkle
      {
        OFFSET 0 -40.1986 0
        CHANNELS 3 Zrotation Xrotation Yrotation
        JOINT LeftToe
        {
          OFFSET 0 -4.4182 9.239
          CHANNELS 3 Zrotation Xrotation Yrotation
          End Site
          {
            OFFSET 0 0 6.1981
          }
        }
      }
    }
  }
}
MOTION
Frames:	4
Frame Time:	0.0333333
-0.783973 11.4197 19.7392 -1.46329e-014 47.346 -180 -0.337779 14.5658 -0.0112168 -0.708818 29.1315 0.0736056 -0.708815 29.1314 0.0736045 -10.1762 -32.2083 -5.66798 -11.138 -11.399 -26.8642 10.9352 9.26647 -33.1326 34.7744 -22.6334 13.529 -6.56964 1.26754 -1.08389 -9.44451 -13.5112 5.11799 -8.49037e-007 1.46242e-006 6.66839e-008 -4.24518e-007 1.72233e-006 3.33419e-008 3.97569e-016 0 -3.18055e-015 -8.49037e-007 1.46242e-006 6.66839e-008 -0.0128438 0.00233247 8.18451e-005 -2.88811e-007 2.26875e-007 -4.68867e-006 -8.49037e-007 1.46242e-006 6.66839e-008 -0.0160007 0.00299347 0.000846105 3.97569e-016 0 -3.18055e-015 -8.49037e-007 1.46242e-006 6.66839e-008 -0.0126225 0.00313158 0.00284164 -1.00201e-006 1.68877e-006 -9.34392e-006 -8.49037e-007 1.46242e-006 6.66839e-008 -4.24518e-007 1.72233e-006 3.33419e-008 3.97569e-016 0 -3.18055e-015 -11.2381 9.81547 28.259 -33.8231 -23.9412 -9.42451 6.13043 1.17579 1.24298 9.51002 -13.9514 -6.01565 7.95139e-016 -1.59028e-015 9.54166e-015 1.00954e-006 5.35248e-006 1.44983e-006 -7.95139e-016 0 3.18055e-015 7.95139e-016 -1.59028e-015 9.54166e-015 0.0129799 0.00232724 -8.70109e-005 2.38542e-015 -1.59028e-015 -0 7.95139e-016 -1.59028e-015 9.54166e-015 0.0162901 0.00302458 -0.000859116 1.03056e-005 4.72373e-007 1.15874e-006 7.95139e-016 -1.59028e-015 9.54166e-015 0.014616 0.00368544 -0.00325654 3.97569e-016 0 1.27222e-014 7.95139e-016 -1.59028e-015 9.54166e-015 1.00954e-006 5.35248e-006 1.44983e-006 -7.95139e-016 0 3.18055e-015 -47.5461 -25.972 -81.7656 -8.00255 51.1649 60.5962 -15.1723 27.0221 -32.7347 3.18055e-015 -2.24816e-008 1.27222e-014 47.5293 -25.9737 81.7475 7.97918 51.1637 -60.5794 15.1637 27.0198 32.7265 -7.79597e-007 -6.83324e-006 2.90308e-007 
-0.783968 11.3047 19.9918 -1.44045e-014 46.4758 -180 -0.338151 14.6125 -0.0103697 -0.710097 29.2249 0.0758849 -0.710094 29.2247 0.0758835 -9.99931 -31.2706 -5.45852 -10.5043 -11.072 -26.6061 11.151 8.79163 -33.2212 34.7745 -22.6334 13.529 -6.56966 1.26758 -1.08386 -8.92006 -14.2077 5.52387 -1.59028e-015 1.99032e-006 -0 -7.95139e-016 1.59028e-015 6.36111e-015 -1.19271e-015 3.18055e-015 3.18055e-015 -1.59028e-015 1.99032e-006 -0 -0.0127769 0.00231984 8.63131e-005 -7.22589e-007 2.09807e-006 -4.65294e-006 -1.59028e-015 1.99032e-006 -0 -0.0160157 0.00298722 0.000862578 -4.24347e-007 1.72058e-006 3.44842e-008 -1.59028e-015 1.99032e-006 -0 -0.0126649 0.00314521 0.0028386 1.09921e-022 1.98017e-006 -3.18055e-015 -1.59028e-015 1.99032e-006 -0 -7.95139e-016 1.59028e-015 6.36111e-015 -1.19271e-015 3.18055e-015 3.18055e-015 -11.4149 9.38368 28.3724 -33.8231 -23.9412 -9.42453 6.1305 1.17576 1.24299 8.97873 -14.6721 -6.50527 3.9757e-016 1.94138e-006 -9.54166e-015 1.85063e-006 6.29371e-006 1.34932e-005 1.59028e-015 2.38542e-015 -3.18055e-015 3.9757e-016 1.94138e-006 -9.54166e-015 0.0129391 0.00231804 -8.41784e-005 8.27192e-007 3.85746e-007 4.63584e-006 3.9757e-016 1.94138e-006 -9.54166e-015 0.0163151 0.00303645 -0.000865877 3.40553e-007 -2.03456e-007 2.9525e-006 3.9757e-016 1.94138e-006 -9.54166e-015 0.0146282 0.00369231 -0.00326407 3.40568e-007 1.74734e-006 2.95257e-006 3.9757e-016 1.94138e-006 -9.54166e-015 1.85063e-006 6.29371e-006 1.34932e-005 1.59028e-015 2.38542e-015 -3.18055e-015 -47.5464 -26.697 -82.0627 -7.67706 50.6904 60.362 -14.8391 27.2874 -33.0584 6.13856e-007 2.01409e-006 -5.37831e-006 47.5285 -26.6988 82.0436 7.6527 50.689 -60.344 14.8271 27.2851 33.0499 -1.55909e-006 1.22446e-007 5.8078e-007 
-0.783963 11.1904 20.2462 -1.41834e-014 45.6058 -180 -0.33853 14.6592 -0.00952264 -0.711393 29.3182 0.0781685 -0.71139 29.3181 0.0781671 -9.82754 -30.3293 -5.2538 -9.87159 -10.7416 -26.3516 11.3658 8.3165 -33.3078 34.7744 -22.6334 13.529 -6.56958 1.26754 -1.08388 -8.38896 -14.9004 5.93757 -1.59028e-015 7.95139e-016 9.54166e-015 -1.15625e-006 3.68143e-006 -4.61479e-006 -8.05882e-006 3.0701e-006 6.78145e-007 -1.59028e-015 7.95139e-016 9.54166e-015 -0.0128474 0.00233079 9.09653e-005 -9.24112e-006 4.65058e-006 -5.06929e-006 -1.59028e-015 7.95139e-016 9.54166e-015 -0.0160392 0.0029975 0.000850165 -1.18765e-005 5.50818e-006 9.98765e-007 -1.59028e-015 7.95139e-016 9.54166e-015 -0.0125225 0.00310678 0.00281379 -5.04469e-006 6.5518e-006 -2.49911e-006 -1.59028e-015 7.95139e-016 9.54166e-015 -1.15625e-006 3.68143e-006 -4.61479e-006 -8.05882e-006 3.0701e-006 6.78145e-007 -11.5907 8.95158 28.4844 -33.8231 -23.9412 -9.42452 6.13045 1.17579 1.24298 8.43947 -15.3882 -7.00332 8.44414e-007 3.40274e-006 -3.16559e-008 2.70379e-006 6.71451e-006 6.04546e-006 8.44414e-007 1.46342e-006 -3.16558e-008 8.44414e-007 3.40274e-006 -3.16559e-008 0.0129612 0.00232041 -8.39102e-005 4.41391e-032 -7.95139e-016 3.18055e-015 8.44414e-007 3.40274e-006 -3.16559e-008 0.0162986 0.00303023 -0.0008744 1.19729e-006 7.80982e-007 2.92058e-006 8.44414e-007 3.40274e-006 -3.16559e-008 0.0145292 0.00366449 -0.00325152 1.7643e-007 1.9403e-006 1.47613e-006 8.44414e-007 3.40274e-006 -3.16559e-008 2.70379e-006 6.71451e-006 6.04546e-006 8.44414e-007 1.46342e-006 -3.16558e-008 -47.5511 -27.4219 -82.3617 -7.35754 50.2153 60.1341 -14.5022 27.5511 -33.3847 -7.79529e-007 -8.0587e-007 2.90399e-007 47.5321 -27.4237 82.3415 7.33211 50.2136 -60.1151 14.4903 27.5488 33.3759 3.53113e-031 -6.36111e-015 3.18055e-015 
-0.783957 11.0767 20.5024 -1.39691e-014 44.736 -180 -0.338915 14.7059 -0.00867623 -0.712705 29.4116 0.0804561 -0.712701 29.4115 0.0804546 -9.66073 -29.3845 -5.05362 -9.24001 -10.4079 -26.1007 11.5795 7.84111 -33.3926 34.7744 -22.6334 13.529 -6.5696 1.26757 -1.08386 -7.85113 -15.5891 6.35909 -1.19271e-015 1.59028e-015 6.36111e-015 3.97569e-016 1.59028e-015 -0 -4.55328e-007 -2.41668e-006 2.96465e-006 -1.19271e-015 1.59028e-015 6.36111e-015 -0.0128176 0.00232037 8.61485e-005 -8.47927e-007 3.43399e-006 7.37642e-008 -1.19271e-015 1.59028e-015 6.36111e-015 -0.0160446 0.00299058 0.000858261 -7.42093e-007 3.94374e-006 -4.64805e-006 -1.19271e-015 1.59028e-015 6.36111e-015 -0.0125524 0.00310561 0.00281391 -7.10083e-007 1.50375e-006 -7.57585e-006 -1.19271e-015 1.59028e-015 6.36111e-015 3.97569e-016 1.59028e-015 -0 -4.55328e-007 -2.41668e-006 2.96465e-006 -11.7654 8.51917 28.5948 -33.823 -23.9412 -9.42451 6.1304 1.17576 1.24299 7.89209 -16.0994 -7.50993 -1.19271e-015 2.38542e-015 -1.59028e-014 -3.65764e-007 -1.24301e-006 -2.95176e-006 3.65764e-007 1.24301e-006 2.95176e-006 -1.19271e-015 2.38542e-015 -1.59028e-014 0.0129349 0.0023108 -9.15911e-005 8.44104e-007 9.79324e-007 -3.4258e-008 -1.19271e-015 2.38542e-015 -1.59028e-014 0.0163517 0.00303215 -0.000876768 -1.82882e-014 1.93188e-006 -6.36111e-015 -1.19271e-015 2.38542e-015 -1.59028e-014 0.014622 0.00368801 -0.00327199 1.98785e-015 -7.95139e-016 -0 -1.19271e-015 2.38542e-015 -1.59028e-014 -3.65764e-007 -1.24301e-006 -2.95176e-006 3.65764e-007 1.24301e-006 2.95176e-006 -47.5601 -28.147 -82.6627 -7.04424 49.7396 59.9125 -14.1616 27.8131 -33.7135 -3.18055e-015 2.2417e-008 -1.27222e-014 47.5401 -28.1485 82.6414 7.0174 49.7376 -59.8925 14.1498 27.8107 33.7044 2.45042e-006 6.23245e-006 1.18625e-005 
